<?xml version="1.0" encoding="UTF-8"?>
<svg width="512" height="512" viewBox="0 0 512 512" xmlns="http://www.w3.org/2000/svg">
  <!-- Background circle with gradient -->
  <defs>
    <radialGradient id="bgGradient" cx="50%" cy="30%" r="70%">
      <stop offset="0%" style="stop-color:#4FC3F7;stop-opacity:1" />
      <stop offset="100%" style="stop-color:#1976D2;stop-opacity:1" />
    </radialGradient>
    <linearGradient id="tabletGradient" x1="0%" y1="0%" x2="100%" y2="100%">
      <stop offset="0%" style="stop-color:#E3F2FD;stop-opacity:1" />
      <stop offset="100%" style="stop-color:#BBDEFB;stop-opacity:1" />
    </linearGradient>
    <linearGradient id="screenGradient" x1="0%" y1="0%" x2="100%" y2="100%">
      <stop offset="0%" style="stop-color:#263238;stop-opacity:1" />
      <stop offset="100%" style="stop-color:#37474F;stop-opacity:1" />
    </linearGradient>
  </defs>
  
  <!-- Background -->
  <circle cx="256" cy="256" r="240" fill="url(#bgGradient)" />
  
  <!-- Wireless signal waves (background) -->
  <g opacity="0.3">
    <!-- Outer wave -->
    <path d="M 150 180 Q 180 150 220 160 T 280 180 T 340 200 T 380 240" 
          stroke="#FFFFFF" stroke-width="8" fill="none" opacity="0.4"/>
    <!-- Middle wave -->
    <path d="M 170 200 Q 200 180 240 190 T 300 210 T 360 230" 
          stroke="#FFFFFF" stroke-width="6" fill="none" opacity="0.6"/>
    <!-- Inner wave -->
    <path d="M 190 220 Q 220 200 260 210 T 320 240" 
          stroke="#FFFFFF" stroke-width="4" fill="none" opacity="0.8"/>
  </g>
  
  <!-- Tablet device -->
  <g transform="translate(256,256)">
    <!-- Tablet body -->
    <rect x="-80" y="-60" width="160" height="120" rx="16" ry="16" 
          fill="url(#tabletGradient)" stroke="#1565C0" stroke-width="3"/>
    
    <!-- Screen -->
    <rect x="-70" y="-50" width="140" height="100" rx="8" ry="8" 
          fill="url(#screenGradient)"/>
    
    <!-- Screen content (AirPlay icon representation) -->
    <g transform="scale(0.8)">
      <!-- Small device icon -->
      <rect x="-25" y="-15" width="20" height="12" rx="2" ry="2" 
            fill="#4FC3F7" opacity="0.8"/>
      
      <!-- Arrow pointing to tablet -->
      <path d="M 8 -8 L 20 -8 L 16 -12 M 20 -8 L 16 -4" 
            stroke="#4FC3F7" stroke-width="2" fill="none" opacity="0.8"/>
      
      <!-- Tablet representation -->
      <rect x="25" y="-20" width="30" height="20" rx="3" ry="3" 
            fill="#4FC3F7" opacity="0.8"/>
    </g>
    
    <!-- Home indicator -->
    <circle cx="0" cy="45" r="4" fill="#1565C0" opacity="0.6"/>
  </g>
  
  <!-- Signal waves coming to tablet -->
  <g opacity="0.8">
    <!-- Signal waves from left side -->
    <path d="M 120 256 Q 150 250 180 256" 
          stroke="#FFFFFF" stroke-width="3" fill="none" opacity="0.9"/>
    <path d="M 100 256 Q 140 245 180 256" 
          stroke="#FFFFFF" stroke-width="2" fill="none" opacity="0.7"/>
    <path d="M 80 256 Q 130 240 180 256" 
          stroke="#FFFFFF" stroke-width="1" fill="none" opacity="0.5"/>
          
    <!-- Signal waves from right side -->
    <path d="M 392 256 Q 362 250 332 256" 
          stroke="#FFFFFF" stroke-width="3" fill="none" opacity="0.9"/>
    <path d="M 412 256 Q 372 245 332 256" 
          stroke="#FFFFFF" stroke-width="2" fill="none" opacity="0.7"/>
    <path d="M 432 256 Q 382 240 332 256" 
          stroke="#FFFFFF" stroke-width="1" fill="none" opacity="0.5"/>
  </g>
  
  <!-- Signal dots/particles -->
  <g opacity="0.6">
    <circle cx="140" cy="220" r="2" fill="#FFFFFF"/>
    <circle cx="160" cy="240" r="1.5" fill="#FFFFFF"/>
    <circle cx="350" cy="230" r="2" fill="#FFFFFF"/>
    <circle cx="370" cy="250" r="1.5" fill="#FFFFFF"/>
    <circle cx="200" cy="200" r="1" fill="#FFFFFF"/>
    <circle cx="310" cy="210" r="1" fill="#FFFFFF"/>
  </g>
</svg>